<?xml version="1.0"?>
<svg xmlns="http://www.w3.org/2000/svg" id="Layer_1" enable-background="new 0 0 512.198 512.198" height="512px" viewBox="0 0 512.198 512.198" width="512px" class=""><g><g><path d="" data-original="#000000" class="active-path" data-old_color="#000000" fill="#F9F8F9"/></g><g><path d="m102.106 227.621c-31.838 30.802-1.303 83.69 41.291 71.518-12.172 42.594 34.724 69.669 65.525 37.831l.384-.473c-41.105-18.974-69.47-62.108-69.47-112.418v-56.837c-.354-17.688 28.615-23.284 31.148-.393.319 12.638 8.454 18.93 15.96 20.604 3.323.741 14.667 2.153 21.152-10.799 2.537-5.067 7.625-8.357 13.286-8.59 5.676-.227 11.003 2.626 13.949 7.466 6.281 10.322 16.54 11.496 24.051 9.155 7.508-2.343 15.28-9.145 14.576-21.208-.33-5.657 2.438-11.046 7.228-14.073s10.845-3.215 15.814-.49c10.95 6.006 22.542 6.543 31.799 1.472 7.315-4.007 12.165-11.08 12.659-18.459.776-17.398 29.429-21.329 31.118 1.04v91.115c0 51.375-30.031 95.477-72.532 113.792 30.862 30.802 81.059 3.566 68.972-38.732 42.594 12.172 73.129-40.717 41.291-71.518 42.973-10.756 42.973-71.826 0-82.582 31.838-30.801 1.303-83.69-41.291-71.518 12.172-42.594-40.717-73.129-71.518-41.291-10.756-42.973-71.826-42.973-82.582 0-30.801-31.838-83.69-1.303-71.518 41.291-42.594-12.172-73.129 40.717-41.291 71.518-42.974 10.753-42.974 71.823-.001 82.579z" data-original="#000000" class="active-path" data-old_color="#000000" fill="#F9F8F9"/><path d="m341.423 395.104-2.75-.747c-16.071-4.364-28.989-16.318-34.584-32.003l-8.137-22.808c-12.407 4.775-25.793 7.383-39.746 7.383-15.44 0-30.184-3.199-43.678-8.989l-8.058 24.588c-5.114 15.604-17.445 27.78-33.112 32.697l-2.774.87v39.602h172.839z" data-original="#000000" class="active-path" data-old_color="#000000" fill="#F9F8F9"/><path d="m341.423 224.08v-45.158c-12.287 6.051-26.024 7.614-39.666 4.722-5.488 14.451-17.308 25.853-33.096 30.779-16.135 5.034-32.703 2.149-45.557-7.08-8.794 7.622-19.805 11.787-31.583 11.787-3.725.001-7.524-.416-11.357-1.271-3.202-.714-6.263-1.715-9.173-2.959v9.18c0 50.562 38.228 91.697 85.217 91.697s85.215-41.135 85.215-91.697z" data-original="#000000" class="active-path" data-old_color="#000000" fill="#F9F8F9"/><path d="m168.585 466.85h172.839v45.348h-172.839z" data-original="#000000" class="active-path" data-old_color="#000000" fill="#F9F8F9"/><path d="m115.412 412.782c-17.388 5.457-30.529 19.797-34.45 37.594l-11.44 51.921c-1.12 5.085 2.751 9.901 7.957 9.901h59.953v-106.326z" data-original="#000000" class="active-path" data-old_color="#000000" fill="#F9F8F9"/><path d="m442.638 502.134-13.522-55.889c-4.364-18.039-18.205-32.27-36.115-37.134l-20.425-5.547v108.634h62.143c5.275 0 9.16-4.936 7.919-10.064z" data-original="#000000" class="active-path" data-old_color="#000000" fill="#F9F8F9"/></g></g> </svg>
